<mxfile host="app.diagrams.net" modified="2024-06-03T16:16:30.995Z" agent="Mozilla/5.0 (Windows NT 10.0; Win64; x64) AppleWebKit/537.36 (KHTML, like Gecko) Chrome/125.0.0.0 Safari/537.36" etag="KZkGfNErXCiQBFrqpzt5" version="24.4.9" type="device">
  <diagram name="Página-1" id="ij2Nu6MM7uFMuDc8VkUv">
    <mxGraphModel dx="2261" dy="1949" grid="1" gridSize="10" guides="1" tooltips="1" connect="1" arrows="1" fold="1" page="1" pageScale="1" pageWidth="827" pageHeight="1169" math="0" shadow="0">
      <root>
        <mxCell id="0" />
        <mxCell id="1" parent="0" />
        <mxCell id="KN5Qe3xe26M6U--A08NQ-1" value="Cliente" style="shape=umlActor;verticalLabelPosition=bottom;verticalAlign=top;html=1;outlineConnect=0;" vertex="1" parent="1">
          <mxGeometry x="-10" y="160" width="30" height="60" as="geometry" />
        </mxCell>
        <mxCell id="KN5Qe3xe26M6U--A08NQ-3" value="Gerente" style="shape=umlActor;verticalLabelPosition=bottom;verticalAlign=top;html=1;outlineConnect=0;" vertex="1" parent="1">
          <mxGeometry x="250" y="810" width="30" height="60" as="geometry" />
        </mxCell>
        <mxCell id="KN5Qe3xe26M6U--A08NQ-5" value="Atendente" style="shape=umlActor;verticalLabelPosition=bottom;verticalAlign=top;html=1;outlineConnect=0;" vertex="1" parent="1">
          <mxGeometry x="-20" y="510" width="30" height="60" as="geometry" />
        </mxCell>
        <mxCell id="KN5Qe3xe26M6U--A08NQ-13" value="Tempo" style="shape=umlActor;verticalLabelPosition=bottom;verticalAlign=top;html=1;outlineConnect=0;" vertex="1" parent="1">
          <mxGeometry x="640" y="280" width="30" height="60" as="geometry" />
        </mxCell>
        <mxCell id="KN5Qe3xe26M6U--A08NQ-14" value="Alugar fita" style="ellipse;whiteSpace=wrap;html=1;" vertex="1" parent="1">
          <mxGeometry x="110" y="10" width="120" height="80" as="geometry" />
        </mxCell>
        <mxCell id="KN5Qe3xe26M6U--A08NQ-15" value="Devolver fita" style="ellipse;whiteSpace=wrap;html=1;" vertex="1" parent="1">
          <mxGeometry x="430" y="-20" width="120" height="80" as="geometry" />
        </mxCell>
        <mxCell id="KN5Qe3xe26M6U--A08NQ-16" value="Comprar fita" style="ellipse;whiteSpace=wrap;html=1;" vertex="1" parent="1">
          <mxGeometry x="100" y="300" width="120" height="80" as="geometry" />
        </mxCell>
        <mxCell id="KN5Qe3xe26M6U--A08NQ-17" value="" style="endArrow=classic;html=1;rounded=0;entryX=-0.008;entryY=0.588;entryDx=0;entryDy=0;entryPerimeter=0;" edge="1" parent="1" source="KN5Qe3xe26M6U--A08NQ-1" target="KN5Qe3xe26M6U--A08NQ-16">
          <mxGeometry width="50" height="50" relative="1" as="geometry">
            <mxPoint x="170" y="240" as="sourcePoint" />
            <mxPoint x="220" y="190" as="targetPoint" />
          </mxGeometry>
        </mxCell>
        <mxCell id="KN5Qe3xe26M6U--A08NQ-18" value="" style="endArrow=classic;html=1;rounded=0;entryX=0.083;entryY=0.875;entryDx=0;entryDy=0;entryPerimeter=0;" edge="1" parent="1" source="KN5Qe3xe26M6U--A08NQ-1" target="KN5Qe3xe26M6U--A08NQ-14">
          <mxGeometry width="50" height="50" relative="1" as="geometry">
            <mxPoint x="170" y="180" as="sourcePoint" />
            <mxPoint x="220" y="130" as="targetPoint" />
          </mxGeometry>
        </mxCell>
        <mxCell id="KN5Qe3xe26M6U--A08NQ-19" value="" style="endArrow=classic;html=1;rounded=0;entryX=0.983;entryY=0.388;entryDx=0;entryDy=0;entryPerimeter=0;exitX=-0.008;exitY=0.4;exitDx=0;exitDy=0;exitPerimeter=0;" edge="1" parent="1" source="KN5Qe3xe26M6U--A08NQ-15" target="KN5Qe3xe26M6U--A08NQ-14">
          <mxGeometry width="50" height="50" relative="1" as="geometry">
            <mxPoint x="389" y="55" as="sourcePoint" />
            <mxPoint x="439" y="5" as="targetPoint" />
          </mxGeometry>
        </mxCell>
        <mxCell id="KN5Qe3xe26M6U--A08NQ-20" value="Extend" style="text;html=1;align=center;verticalAlign=middle;whiteSpace=wrap;rounded=0;rotation=-15;" vertex="1" parent="1">
          <mxGeometry x="330" width="66" height="20" as="geometry" />
        </mxCell>
        <mxCell id="KN5Qe3xe26M6U--A08NQ-22" value="Pagar multa" style="ellipse;whiteSpace=wrap;html=1;" vertex="1" parent="1">
          <mxGeometry x="510" y="120" width="120" height="80" as="geometry" />
        </mxCell>
        <mxCell id="KN5Qe3xe26M6U--A08NQ-23" value="" style="endArrow=classic;html=1;rounded=0;" edge="1" parent="1" source="KN5Qe3xe26M6U--A08NQ-22" target="KN5Qe3xe26M6U--A08NQ-15">
          <mxGeometry width="50" height="50" relative="1" as="geometry">
            <mxPoint x="390" y="230" as="sourcePoint" />
            <mxPoint x="440" y="180" as="targetPoint" />
          </mxGeometry>
        </mxCell>
        <mxCell id="KN5Qe3xe26M6U--A08NQ-24" value="Gerenciar bloqueio/desbloqueio" style="ellipse;whiteSpace=wrap;html=1;" vertex="1" parent="1">
          <mxGeometry x="414" y="260" width="120" height="80" as="geometry" />
        </mxCell>
        <mxCell id="KN5Qe3xe26M6U--A08NQ-26" value="" style="endArrow=classic;html=1;rounded=0;" edge="1" parent="1" source="KN5Qe3xe26M6U--A08NQ-13" target="KN5Qe3xe26M6U--A08NQ-24">
          <mxGeometry width="50" height="50" relative="1" as="geometry">
            <mxPoint x="390" y="230" as="sourcePoint" />
            <mxPoint x="440" y="180" as="targetPoint" />
          </mxGeometry>
        </mxCell>
        <mxCell id="KN5Qe3xe26M6U--A08NQ-29" value="" style="endArrow=classic;html=1;rounded=0;" edge="1" parent="1" source="KN5Qe3xe26M6U--A08NQ-13" target="KN5Qe3xe26M6U--A08NQ-22">
          <mxGeometry width="50" height="50" relative="1" as="geometry">
            <mxPoint x="610" y="260" as="sourcePoint" />
            <mxPoint x="660" y="210" as="targetPoint" />
          </mxGeometry>
        </mxCell>
        <mxCell id="KN5Qe3xe26M6U--A08NQ-30" value="Extend" style="text;html=1;align=center;verticalAlign=middle;whiteSpace=wrap;rounded=0;rotation=60;" vertex="1" parent="1">
          <mxGeometry x="520" y="70" width="60" height="30" as="geometry" />
        </mxCell>
        <mxCell id="KN5Qe3xe26M6U--A08NQ-31" value="Sistema" style="swimlane;whiteSpace=wrap;html=1;" vertex="1" parent="1">
          <mxGeometry x="670" y="400" width="330" height="330" as="geometry" />
        </mxCell>
        <mxCell id="KN5Qe3xe26M6U--A08NQ-33" value="Calcular valor&lt;div&gt;a pagar&lt;/div&gt;" style="ellipse;whiteSpace=wrap;html=1;" vertex="1" parent="KN5Qe3xe26M6U--A08NQ-31">
          <mxGeometry x="10" y="150" width="120" height="80" as="geometry" />
        </mxCell>
        <mxCell id="KN5Qe3xe26M6U--A08NQ-54" value="Manter dados" style="ellipse;whiteSpace=wrap;html=1;" vertex="1" parent="KN5Qe3xe26M6U--A08NQ-31">
          <mxGeometry x="10" y="40" width="120" height="80" as="geometry" />
        </mxCell>
        <mxCell id="KN5Qe3xe26M6U--A08NQ-34" value="" style="endArrow=classic;html=1;rounded=0;exitX=0.975;exitY=0.75;exitDx=0;exitDy=0;exitPerimeter=0;entryX=0.275;entryY=0.025;entryDx=0;entryDy=0;entryPerimeter=0;" edge="1" parent="1" source="KN5Qe3xe26M6U--A08NQ-14" target="KN5Qe3xe26M6U--A08NQ-24">
          <mxGeometry width="50" height="50" relative="1" as="geometry">
            <mxPoint x="390" y="110" as="sourcePoint" />
            <mxPoint x="440" y="60" as="targetPoint" />
          </mxGeometry>
        </mxCell>
        <mxCell id="KN5Qe3xe26M6U--A08NQ-35" value="Include" style="text;html=1;align=center;verticalAlign=middle;whiteSpace=wrap;rounded=0;rotation=45;" vertex="1" parent="1">
          <mxGeometry x="336" y="160" width="60" height="30" as="geometry" />
        </mxCell>
        <mxCell id="KN5Qe3xe26M6U--A08NQ-37" value="Efetuar pagamento" style="ellipse;whiteSpace=wrap;html=1;" vertex="1" parent="1">
          <mxGeometry x="120" y="150" width="120" height="80" as="geometry" />
        </mxCell>
        <mxCell id="KN5Qe3xe26M6U--A08NQ-38" value="" style="endArrow=classic;html=1;rounded=0;exitX=0.667;exitY=0.988;exitDx=0;exitDy=0;exitPerimeter=0;entryX=0.617;entryY=0;entryDx=0;entryDy=0;entryPerimeter=0;" edge="1" parent="1" source="KN5Qe3xe26M6U--A08NQ-14" target="KN5Qe3xe26M6U--A08NQ-37">
          <mxGeometry width="50" height="50" relative="1" as="geometry">
            <mxPoint x="390" y="110" as="sourcePoint" />
            <mxPoint x="440" y="60" as="targetPoint" />
          </mxGeometry>
        </mxCell>
        <mxCell id="KN5Qe3xe26M6U--A08NQ-39" value="" style="endArrow=classic;html=1;rounded=0;exitX=0.758;exitY=0.013;exitDx=0;exitDy=0;exitPerimeter=0;entryX=0.658;entryY=0.975;entryDx=0;entryDy=0;entryPerimeter=0;" edge="1" parent="1" source="KN5Qe3xe26M6U--A08NQ-16" target="KN5Qe3xe26M6U--A08NQ-37">
          <mxGeometry width="50" height="50" relative="1" as="geometry">
            <mxPoint x="390" y="110" as="sourcePoint" />
            <mxPoint x="440" y="60" as="targetPoint" />
          </mxGeometry>
        </mxCell>
        <mxCell id="KN5Qe3xe26M6U--A08NQ-40" value="Include" style="text;html=1;align=center;verticalAlign=middle;whiteSpace=wrap;rounded=0;rotation=75;" vertex="1" parent="1">
          <mxGeometry x="170" y="100" width="60" height="30" as="geometry" />
        </mxCell>
        <mxCell id="KN5Qe3xe26M6U--A08NQ-41" value="Include" style="text;html=1;align=center;verticalAlign=middle;whiteSpace=wrap;rounded=0;rotation=-67;" vertex="1" parent="1">
          <mxGeometry x="180" y="250" width="60" height="30" as="geometry" />
        </mxCell>
        <mxCell id="KN5Qe3xe26M6U--A08NQ-42" value="Reservar título" style="ellipse;whiteSpace=wrap;html=1;" vertex="1" parent="1">
          <mxGeometry x="190" y="400" width="120" height="80" as="geometry" />
        </mxCell>
        <mxCell id="KN5Qe3xe26M6U--A08NQ-43" value="Consultar título" style="ellipse;whiteSpace=wrap;html=1;" vertex="1" parent="1">
          <mxGeometry x="276" y="490" width="120" height="80" as="geometry" />
        </mxCell>
        <mxCell id="KN5Qe3xe26M6U--A08NQ-44" value="Cadastrar cliente" style="ellipse;whiteSpace=wrap;html=1;" vertex="1" parent="1">
          <mxGeometry x="190" y="590" width="120" height="80" as="geometry" />
        </mxCell>
        <mxCell id="KN5Qe3xe26M6U--A08NQ-45" value="" style="endArrow=classic;html=1;rounded=0;entryX=0.225;entryY=0.013;entryDx=0;entryDy=0;entryPerimeter=0;" edge="1" parent="1" source="KN5Qe3xe26M6U--A08NQ-5" target="KN5Qe3xe26M6U--A08NQ-44">
          <mxGeometry width="50" height="50" relative="1" as="geometry">
            <mxPoint x="390" y="610" as="sourcePoint" />
            <mxPoint x="440" y="560" as="targetPoint" />
          </mxGeometry>
        </mxCell>
        <mxCell id="KN5Qe3xe26M6U--A08NQ-46" value="" style="endArrow=classic;html=1;rounded=0;" edge="1" parent="1" source="KN5Qe3xe26M6U--A08NQ-5" target="KN5Qe3xe26M6U--A08NQ-43">
          <mxGeometry width="50" height="50" relative="1" as="geometry">
            <mxPoint x="100" y="580" as="sourcePoint" />
            <mxPoint x="150" y="530" as="targetPoint" />
          </mxGeometry>
        </mxCell>
        <mxCell id="KN5Qe3xe26M6U--A08NQ-47" value="" style="endArrow=classic;html=1;rounded=0;" edge="1" parent="1" source="KN5Qe3xe26M6U--A08NQ-5" target="KN5Qe3xe26M6U--A08NQ-42">
          <mxGeometry width="50" height="50" relative="1" as="geometry">
            <mxPoint x="50" y="540" as="sourcePoint" />
            <mxPoint x="100" y="490" as="targetPoint" />
          </mxGeometry>
        </mxCell>
        <mxCell id="KN5Qe3xe26M6U--A08NQ-48" value="Manter cadastro" style="ellipse;whiteSpace=wrap;html=1;" vertex="1" parent="1">
          <mxGeometry x="480" y="590" width="120" height="80" as="geometry" />
        </mxCell>
        <mxCell id="KN5Qe3xe26M6U--A08NQ-49" value="" style="endArrow=classic;html=1;rounded=0;entryX=0.225;entryY=0.95;entryDx=0;entryDy=0;entryPerimeter=0;" edge="1" parent="1" source="KN5Qe3xe26M6U--A08NQ-3" target="KN5Qe3xe26M6U--A08NQ-48">
          <mxGeometry width="50" height="50" relative="1" as="geometry">
            <mxPoint x="430" y="770" as="sourcePoint" />
            <mxPoint x="480" y="720" as="targetPoint" />
          </mxGeometry>
        </mxCell>
        <mxCell id="KN5Qe3xe26M6U--A08NQ-50" value="" style="endArrow=classic;html=1;rounded=0;" edge="1" parent="1" source="KN5Qe3xe26M6U--A08NQ-3" target="KN5Qe3xe26M6U--A08NQ-5">
          <mxGeometry width="50" height="50" relative="1" as="geometry">
            <mxPoint x="190" y="850" as="sourcePoint" />
            <mxPoint x="240" y="800" as="targetPoint" />
          </mxGeometry>
        </mxCell>
        <mxCell id="KN5Qe3xe26M6U--A08NQ-52" value="" style="endArrow=classic;html=1;rounded=0;exitX=1;exitY=0.75;exitDx=0;exitDy=0;exitPerimeter=0;entryX=0.283;entryY=0.075;entryDx=0;entryDy=0;entryPerimeter=0;" edge="1" parent="1" source="KN5Qe3xe26M6U--A08NQ-37" target="KN5Qe3xe26M6U--A08NQ-33">
          <mxGeometry width="50" height="50" relative="1" as="geometry">
            <mxPoint x="410" y="420" as="sourcePoint" />
            <mxPoint x="460" y="370" as="targetPoint" />
          </mxGeometry>
        </mxCell>
        <mxCell id="KN5Qe3xe26M6U--A08NQ-53" value="Include" style="text;html=1;align=center;verticalAlign=middle;whiteSpace=wrap;rounded=0;rotation=30;" vertex="1" parent="1">
          <mxGeometry x="396" y="360" width="60" height="30" as="geometry" />
        </mxCell>
      </root>
    </mxGraphModel>
  </diagram>
</mxfile>
